<svg xmlns="http://www.w3.org/2000/svg" viewBox="0 0 125 125" width="125" height="125"><path d="M345.3 221.2c-6.7 0-12.2 5.5-12.2 12.2 0 6.7 5.5 12.2 12.2 12.2 6.7 0 12.2-5.5 12.2-12.2C357.5 226.6 352 221.2 345.3 221.2z"/><path d="M415 221.2c-6.7 0-12.2 5.5-12.2 12.2 0 6.7 5.5 12.2 12.2 12.2s12.2-5.5 12.2-12.2C427.2 226.6 421.7 221.2 415 221.2z"/><path d="M97 221.2c-6.7 0-12.2 5.5-12.2 12.2 0 6.7 5.5 12.2 12.2 12.2 6.7 0 12.2-5.5 12.2-12.2C109.2 226.6 103.7 221.2 97 221.2z"/><path d="M166.7 221.2c-6.7 0-12.2 5.5-12.2 12.2 0 6.7 5.5 12.2 12.2 12.2 6.7 0 12.2-5.5 12.2-12.2C178.9 226.6 173.4 221.2 166.7 221.2z"/><path d="M507.6 393.8c-1-4-5.1-6.4-9.1-5.4 -4 1-6.4 5.1-5.4 9.1 1.9 7.2 3 14.6 3.5 22.1H354.6c-1.9-0.8-4-1.4-6.2-1.8 0-0.2 0-0.3 0-0.5 0-33.4-17.3-62.8-43.5-79.7 11.5-9.7 24.5-17 38.6-21.6 5.5 15.1 20 25.7 36.6 25.7 16.6 0 31.1-10.5 36.6-25.6 27.8 9.2 51.5 28.6 65.9 55.1 2.1 3.8 7.1 5.1 10.8 2.6 3.2-2.1 4.2-6.5 2.4-9.8 -5.9-10.8-13.1-20.6-21.4-29.1 6.9-5.2 12.9-13.1 17.9-23.6 19.6-41.7 19.6-121.5 5.8-157.5 -9.2-24-25.2-44.4-46.4-58.9 -21.1-14.6-45.9-22.3-71.6-22.3 -30.6 0-60.2 11.1-83.3 31.4 -3.1 2.7-3.4 7.5-0.7 10.6 2.7 3.1 7.5 3.4 10.6 0.7 20.3-17.8 46.4-27.6 73.4-27.6 22.6 0 44.4 6.8 63.1 19.6 18.6 12.8 32.8 30.8 40.9 51.9 12.5 32.6 12.5 107.8-5.3 145.7 -4.5 9.6-9.8 16.2-15.7 19.5 -12.8-10.4-27.5-18.3-43.4-23.3 30.9-14.8 52.4-46.4 52.4-82.9v-15.2c0-3.7-2.6-6.8-6.2-7.4 -37.1-6.4-62.8-44.1-63.1-44.4 -3.3-4.9-11-4.1-13.2 1.3 -0.2 0.4-18.4 43-93.8 43 -4.1 0-7.5 3.4-7.5 7.5v15.2c0 36.5 21.4 68.1 52.3 82.9 -15.7 4.9-30.4 12.8-43.3 23.3 -5.9-3.4-11.2-9.9-15.7-19.5 -17.8-37.9-17.8-113.1-5.3-145.7 3.1-8 7.1-15.7 11.9-22.8 2.3-3.4 1.4-8.1-2-10.4 -3.4-2.3-8.1-1.4-10.4 2 -5.5 8-10 16.8-13.5 25.9 -13.8 36-13.8 115.7 5.8 157.5 2.5 5.3 5.3 9.9 8.3 13.9 -6.6-1.6-13.4-2.5-20.4-2.7 -0.7-5.9-1.3-14.2 0.2-20.7 0.9-4-1.7-8-5.7-8.9 -4-0.9-8 1.7-8.9 5.7 -1.4 6.3-1.4 13.4-1 19.3 -11.8-7.5-14-18.9-14.2-19.6 -0.7-4.1-4.5-6.8-8.6-6.1 -4.1 0.7-6.9 4.5-6.2 8.6 0.1 0.8 2.6 14.7 15.2 25.7 -2.3 0.7-4.6 1.5-6.9 2.3 -14.1-12.7-30.6-22-48.3-27.6 15.7-7.5 29-19.4 38.2-34 3.8 2 8.1 3 12.5 3 15.1 0 27.3-12.3 27.3-27.3 0-5.8-1.8-11.3-5-15.7 19.6-56.8 10.9-90.1 0-108.1 -10.9-18-28.9-29.5-50.9-32.5 -15.6-2.1-28.3 2-35.5 5.3 -10.4-12.4-22.3-19.1-46.9-19.1 -28.3 0-68.3 14.7-89.5 46.8 -23.5 35.7-15 77.7-2.7 108 -3 4.4-4.7 9.7-4.7 15.3 0 15.1 12.3 27.3 27.3 27.3 4.4 0 8.7-1.1 12.5-3 9.2 14.6 22.5 26.5 38.1 34 -20.8 6.5-39.8 18.2-55.4 34.5 -2.6 2.7-2.8 7.1-0.4 10 2.8 3.4 8.1 3.6 11.2 0.4 13.4-14 29.7-24.2 47.5-30.1 5.5 15.1 20 25.7 36.7 25.7 16.6 0 31.1-10.6 36.6-25.6 13.2 4.4 25.6 11.1 36.6 20 -27.6 16.6-46.2 46.8-46.2 81.3 0 0.2 0 0.3 0 0.5 -2.1 0.4-4.2 1-6.2 1.8H15.4c1.1-17.9 6.3-35.4 15.3-51 2.1-3.6 0.8-8.2-2.7-10.2 -3.6-2.1-8.2-0.8-10.2 2.8C6.3 381 0.2 403.7 0.2 426.8v0.3c0 4.1 3.4 7.5 7.5 7.5h130.3c-1.3 3.1-2 6.6-2 10.2 0 15.1 12.3 27.3 27.3 27.3 4 0 7.8-0.8 11.3-2.5 17 25.5 46 42.4 78.9 42.4 32.9 0 61.9-16.9 78.9-42.4 3.5 1.6 7.4 2.5 11.3 2.5 15.1 0 27.3-12.3 27.3-27.3 0-3.6-0.7-7-2-10.2h135c4.1 0 7.5-3.4 7.5-7.5v-0.3C511.8 415.6 510.4 404.5 507.6 393.8zM222.1 255.2c-2 0-3.8-0.5-5.5-1.3 3.1-7.3 5.3-15.2 6.4-23.3 6.4 0.4 11.5 5.8 11.5 12.3C234.4 249.7 228.9 255.2 222.1 255.2zM34.2 127.8c18.1-27.5 52.6-40.1 77-40.1 23.8 0 30.6 6.8 38.9 18.1 2.4 3.2 6.9 4 10.2 1.8 0.1-0.1 13.4-8.7 31.3-6.2 17.4 2.4 31.6 11.4 40.1 25.4 12.6 20.9 12.7 52.1 0.3 90.6 -2.6-1-5.3-1.6-8.2-1.8v-12.5c0-3.7-2.6-6.8-6.2-7.4 -37.1-6.4-62.8-44.1-63.1-44.4 -3.3-4.9-10.9-4.2-13.2 1.3 0 0.1-4.7 10.9-18.4 21.4 -18.3 14.1-44.3 21.6-75.4 21.6 -4.1 0-7.5 3.4-7.5 7.5v12.5c-3.1 0.2-6.1 0.9-8.8 2C17.6 181.7 18.6 151.5 34.2 127.8zM41.6 255.2c-6.8 0-12.3-5.5-12.3-12.3 0-6.5 5.1-11.9 11.5-12.3 1.1 8.2 3.3 16 6.4 23.3C45.5 254.7 43.6 255.2 41.6 255.2zM55.2 223.4c0 0 0-0.1 0-0.1 -0.1-1.7-0.2-3.3-0.2-5v-7.8c56.9-2 83.3-27.1 94-41.7 10.3 12.3 31.4 33.3 59.8 40.4v9.1c0 1.7-0.1 3.3-0.2 5 0 0 0 0.1 0 0.1 -2.6 40-36 71.8-76.7 71.8C91.2 295.1 57.8 263.4 55.2 223.4zM131.9 326.6c-9.7 0-18.3-5.9-22-14.4 7.2-1.4 14.5-2.1 22-2.1 7.5 0 14.8 0.7 22 2.1C150.1 320.7 141.6 326.6 131.9 326.6zM380.2 326.6c-9.7 0-18.3-5.9-22-14.4 7.2-1.4 14.5-2.1 22-2.1 7.5 0 14.8 0.7 22 2.1C398.4 320.8 389.9 326.6 380.2 326.6zM303.3 218.2v-7.8c56.9-2 83.3-27.1 94-41.7 10.3 12.3 31.4 33.3 59.8 40.4v9.1c0 42.4-34.5 76.9-76.9 76.9S303.3 260.6 303.3 218.2zM163.4 457.1c-6.8 0-12.3-5.5-12.3-12.3 0-5.7 3.9-10.5 9.1-11.9 1.4 8.3 3.8 16.2 7.2 23.6C166.1 456.8 164.8 457.1 163.4 457.1zM253.7 497c-44 0-79.8-35.8-79.8-79.8s35.8-79.8 79.8-79.8c44 0 79.8 35.8 79.8 79.8S297.6 497 253.7 497zM343.9 457.1c-1.4 0-2.7-0.2-4-0.7 3.4-7.4 5.8-15.3 7.2-23.6 5.2 1.4 9.1 6.2 9.1 11.9C356.2 451.5 350.7 457.1 343.9 457.1z"/><path d="M218.8 414.1c-6.7 0-12.2 5.5-12.2 12.2 0 6.7 5.5 12.2 12.2 12.2 6.7 0 12.2-5.5 12.2-12.2C231 419.5 225.5 414.1 218.8 414.1z"/><path d="M288.5 414.1c-6.7 0-12.2 5.5-12.2 12.2 0 6.7 5.5 12.2 12.2 12.2 6.7 0 12.2-5.5 12.2-12.2C300.7 419.5 295.2 414.1 288.5 414.1z"/><path d="M236.4 72.3c11.7 10.1 23.8 16 24.3 16.2 2.1 1 4.5 1 6.6 0 0.5-0.2 12.6-6.2 24.3-16.2 16.5-14.2 24.1-29.9 22-45.3 -2.5-18.4-15.6-26-27-27 -8.6-0.7-16.8 2-22.6 7 -5.8-5-13.9-7.7-22.6-7 -11.4 1-24.5 8.5-27 27C212.3 42.5 219.9 58.1 236.4 72.3zM229.3 29.1c1.6-11.4 9.1-13.7 13.4-14.1 0.5 0 1-0.1 1.5-0.1 6 0 11.4 3.1 12.7 7.3 1 3.1 3.9 5.3 7.2 5.3 3.3 0 6.2-2.1 7.2-5.3 1.4-4.6 7.7-7.8 14.2-7.3 4.3 0.4 11.8 2.7 13.4 14.1 2.6 19.3-21.7 37.1-34.7 44.3C251 66.2 226.6 48.4 229.3 29.1z"/></svg>